<?xml version="1.0" encoding="UTF-8"?>
<svg id="Layer_1" xmlns="http://www.w3.org/2000/svg" version="1.1" viewBox="0 0 448 448">
  <!-- Generator: Adobe Illustrator 29.4.0, SVG Export Plug-In . SVG Version: 2.1.0 Build 152)  -->
  <path d="M400,0H48C21.5,0,0,21.5,0,48v352c0,26.5,21.5,48,48,48h352c26.5,0,48-21.5,48-48V48c0-26.5-21.5-48-48-48ZM277.3,383.7c-8.4,1.5-11.5-3.7-11.5-8s.2-33,.2-55.3-5.2-25.5-11.3-30.7c37-4.1,76-9.2,76-73.1s-6.5-27.3-17.1-39c1.7-4.3,7.4-22-1.7-45-13.9-4.3-45.7,17.9-45.7,17.9-13.2-3.7-27.5-5.6-41.6-5.6s-28.4,1.9-41.6,5.6c0,0-31.8-22.2-45.7-17.9-9.1,22.9-3.5,40.6-1.7,45-10.6,11.7-15.6,20.8-15.6,39,0,63.6,37.3,69,74.3,73.1-4.8,4.3-9.1,11.7-10.6,22.3-9.5,4.3-33.8,11.7-48.3-13.9-9.1-15.8-25.5-17.1-25.5-17.1-16.2-.2-1.1,10.2-1.1,10.2,10.8,5,18.4,24.2,18.4,24.2,9.7,29.7,56.1,19.7,56.1,19.7,0,13.9.2,36.5.2,40.6s-3,9.5-11.5,8c-66-22.1-112.2-84.9-112.2-158.3S130,63.9,221.8,63.9s166.2,69.7,166.2,161.5c.1,73.4-44.7,136.3-110.7,158.3ZM179.2,322.6c-1.9.4-3.7-.4-3.9-1.7-.2-1.5,1.1-2.8,3-3.2,1.9-.2,3.7.6,3.9,1.9.3,1.3-1,2.6-3,3h0ZM169.7,321.7c0,1.3-1.5,2.4-3.5,2.4-2.2.2-3.7-.9-3.7-2.4s1.5-2.4,3.5-2.4c1.9-.2,3.7.9,3.7,2.4ZM156,320.6c-.4,1.3-2.4,1.9-4.1,1.3-1.9-.4-3.2-1.9-2.8-3.2.4-1.3,2.4-1.9,4.1-1.5,2,.6,3.3,2.1,2.8,3.4h0ZM143.7,315.2c-.9,1.1-2.8.9-4.3-.6-1.5-1.3-1.9-3.2-.9-4.1.9-1.1,2.8-.9,4.3.6,1.3,1.3,1.8,3.3.9,4.1ZM134.6,306.1c-.9.6-2.6,0-3.7-1.5s-1.1-3.2,0-3.9c1.1-.9,2.8-.2,3.7,1.3,1.1,1.5,1.1,3.3,0,4.1ZM128.1,296.4c-.9.9-2.4.4-3.5-.6-1.1-1.3-1.3-2.8-.4-3.5.9-.9,2.4-.4,3.5.6,1.1,1.3,1.3,2.8.4,3.5ZM121.4,289c-.4.9-1.7,1.1-2.8.4-1.3-.6-1.9-1.7-1.5-2.6.4-.6,1.5-.9,2.8-.4,1.3.7,1.9,1.8,1.5,2.6Z"/>
</svg>